HIERARCHY
ROOT hips
{
  OFFSET 0 10.6860622 2.3727825e-15
  CHANNELS 6 Xposition Yposition Zposition Yrotation Xrotation Zrotation
  JOINT leftUpperLeg
  {
    OFFSET 0.6642549969 -0.9402397400000004 0
    CHANNELS 3 Yrotation Xrotation Zrotation
    JOINT leftLowerLeg
    {
      OFFSET 0 -3.997221335632195 0
      CHANNELS 3 Yrotation Xrotation Zrotation
      JOINT leftFoot
      {
        OFFSET -0.13777839790000004 -4.6145792000000005 -0.22186036399999998
        CHANNELS 3 Yrotation Xrotation Zrotation
        JOINT leftToes
        {
          OFFSET -0.03777410834999995 -0.9130806927000008 0.85230013
          CHANNELS 3 Yrotation Xrotation Zrotation
          End Site
          {
            OFFSET -0.03777410834999995 -0.9130806927000008 0.85230013
          }
        }
      }
    }
  }
  JOINT rightUpperLeg
  {
    OFFSET -0.6642778626 -0.9402397400000004 0
    CHANNELS 3 Yrotation Xrotation Zrotation
    JOINT rightLowerLeg
    {
      OFFSET 0 -3.997221452859387 0
      CHANNELS 3 Yrotation Xrotation Zrotation
      JOINT rightFoot
      {
        OFFSET 0.1377926176 -4.6145792000000005 -0.22185782299999995
        CHANNELS 3 Yrotation Xrotation Zrotation
        JOINT rightToes
        {
          OFFSET 0.037780746850000047 -0.9130806927000008 0.85230167
          CHANNELS 3 Yrotation Xrotation Zrotation
          End Site
          {
            OFFSET 0.037780746850000047 -0.9130806927000008 0.85230167
          }
        }
      }
    }
  }
  JOINT spine
  {
    OFFSET 0 0.13988381660000015 0
    CHANNELS 3 Yrotation Xrotation Zrotation
    JOINT chest
    {
      OFFSET 0 0.6191039003973773 0
      CHANNELS 3 Yrotation Xrotation Zrotation
      JOINT upperChest
      {
        OFFSET 0 0.9855186130586943 0
        CHANNELS 3 Yrotation Xrotation Zrotation
        JOINT leftShoulder
        {
          OFFSET 0.1807663869 1.5087829790000005 0
          CHANNELS 3 Yrotation Xrotation Zrotation
          JOINT leftUpperArm
          {
            OFFSET 0.5985063006419806 0 0
            CHANNELS 3 Yrotation Xrotation Zrotation
            JOINT leftLowerArm
            {
              OFFSET 2.2993332369501065 0 0
              CHANNELS 3 Yrotation Xrotation Zrotation
              JOINT leftHand
              {
                OFFSET 2.395047042602395 0 0
                CHANNELS 3 Yrotation Xrotation Zrotation
                JOINT leftIndexProximal
                {
                  OFFSET 0.5766295810000004 0.04556643899499946 0.17265095988184
                  CHANNELS 3 Yrotation Xrotation Zrotation
                  JOINT leftIndexIntermediate
                  {
                    OFFSET 0.2957229000000008 -0.019352197700001517 -0.007932640616999987
                    CHANNELS 3 Yrotation Xrotation Zrotation
                    JOINT leftIndexDistal
                    {
                      OFFSET 0.19008243099999922 -0.012484908149998475 -0.002786250786000012
                      CHANNELS 3 Yrotation Xrotation Zrotation
                      End Site
                      {
                        OFFSET 0.19008243099999922 -0.012484908149998475 -0.002786250786000012
                      }
                    }
                  }
                }
                JOINT leftMiddleProximal
                {
                  OFFSET 0.5834975091000001 0.0524350405149987 0.02204081888183999
                  CHANNELS 3 Yrotation Xrotation Zrotation
                  JOINT leftMiddleIntermediate
                  {
                    OFFSET 0.33880573540000003 -0.019871473270000717 -0.00000971183179999946
                    CHANNELS 3 Yrotation Xrotation Zrotation
                    JOINT leftMiddleDistal
                    {
                      OFFSET 0.20676022730000088 -0.012221336379999448 0.0001471936708000235
                      CHANNELS 3 Yrotation Xrotation Zrotation
                      End Site
                      {
                        OFFSET 0.20676022730000088 -0.012221336379999448 0.0001471936708000235
                      }
                    }
                  }
                }
                JOINT leftLittleProximal
                {
                  OFFSET 0.5344154683999995 -0.012880921405001189 -0.24414037221816004
                  CHANNELS 3 Yrotation Xrotation Zrotation
                  JOINT leftLittleIntermediate
                  {
                    OFFSET 0.21758961730000093 -0.011650919939999227 0.011893592810000034
                    CHANNELS 3 Yrotation Xrotation Zrotation
                    JOINT leftLittleDistal
                    {
                      OFFSET 0.1475273964999999 -0.008152365682999818 0.006001092492999946
                      CHANNELS 3 Yrotation Xrotation Zrotation
                      End Site
                      {
                        OFFSET 0.1475273964999999 -0.008152365682999818 0.006001092492999946
                      }
                    }
                  }
                }
                JOINT leftRingProximal
                {
                  OFFSET 0.5799399463000003 0.026911854694997794 -0.12150566991816003
                  CHANNELS 3 Yrotation Xrotation Zrotation
                  JOINT leftRingIntermediate
                  {
                    OFFSET 0.26167887460000006 -0.013480186499999602 0.010996293000000053
                    CHANNELS 3 Yrotation Xrotation Zrotation
                    JOINT leftRingDistal
                    {
                      OFFSET 0.17667108799999987 -0.008990287899999228 0.0055541023999999065
                      CHANNELS 3 Yrotation Xrotation Zrotation
                      End Site
                      {
                        OFFSET 0.17667108799999987 -0.008990287899999228 0.0055541023999999065
                      }
                    }
                  }
                }
                JOINT leftThumbProximal
                {
                  OFFSET 0.11018806699999972 -0.09448718900500053 0.17047963138184
                  CHANNELS 3 Yrotation Xrotation Zrotation
                  JOINT leftThumbIntermediate
                  {
                    OFFSET 0.31062601459999983 -0.08126270900000132 0.15443142000000007
                    CHANNELS 3 Yrotation Xrotation Zrotation
                    JOINT leftThumbDistal
                    {
                      OFFSET 0.21627175790000086 -0.08833193599999878 0.018771167799999988
                      CHANNELS 3 Yrotation Xrotation Zrotation
                      End Site
                      {
                        OFFSET 0.21627175790000086 -0.08833193599999878 0.018771167799999988
                      }
                    }
                  }
                }
              }
            }
          }
        }
        JOINT neck
        {
          OFFSET 0 1.5463305265074576 0
          CHANNELS 3 Yrotation Xrotation Zrotation
          JOINT head
          {
            OFFSET 0 0.8456443600000344 0
            CHANNELS 3 Yrotation Xrotation Zrotation
            JOINT leftEye
            {
              OFFSET 0.30408573140000006 0.5104519199999995 0.1276382305
              CHANNELS 3 Yrotation Xrotation Zrotation
              End Site
              {
                OFFSET 0.30408573140000006 0.5104519199999995 0.1276382305
              }
            }
            JOINT rightEye
            {
              OFFSET -0.30409491089999996 0.5104519199999995 0.1276379445
              CHANNELS 3 Yrotation Xrotation Zrotation
              End Site
              {
                OFFSET -0.30409491089999996 0.5104519199999995 0.1276379445
              }
            }
            JOINT jaw
            {
              OFFSET -3.155239131000001e-7 -0.11984121820000082 0.60178107
              CHANNELS 3 Yrotation Xrotation Zrotation
              End Site
              {
                OFFSET -3.155239131000001e-7 -0.11984121820000082 0.60178107
              }
            }
          }
        }
        JOINT rightShoulder
        {
          OFFSET -0.1807303465 1.5087829790000005 0
          CHANNELS 3 Yrotation Xrotation Zrotation
          JOINT rightUpperArm
          {
            OFFSET -0.5985063796536958 0 0
            CHANNELS 3 Yrotation Xrotation Zrotation
            JOINT rightLowerArm
            {
              OFFSET -2.2993322059002854 0 0
              CHANNELS 3 Yrotation Xrotation Zrotation
              JOINT rightHand
              {
                OFFSET -2.395045314457259 0 0
                CHANNELS 3 Yrotation Xrotation Zrotation
                JOINT rightIndexProximal
                {
                  OFFSET -0.5764487688300002 0.0441371204405987 0.17361932004999997
                  CHANNELS 3 Yrotation Xrotation Zrotation
                  JOINT rightIndexIntermediate
                  {
                    OFFSET -0.29573011380000047 -0.01934826376999843 -0.007698921482999974
                    CHANNELS 3 Yrotation Xrotation Zrotation
                    JOINT rightIndexDistal
                    {
                      OFFSET -0.19008373999999884 -0.012503266380000655 -0.0026365778999999897
                      CHANNELS 3 Yrotation Xrotation Zrotation
                      End Site
                      {
                        OFFSET -0.19008373999999884 -0.012503266380000655 -0.0026365778999999897
                      }
                    }
                  }
                }
                JOINT rightMiddleProximal
                {
                  OFFSET -0.5834852037300005 0.05211639405060153 0.02307162440000001
                  CHANNELS 3 Yrotation Xrotation Zrotation
                  JOINT rightMiddleIntermediate
                  {
                    OFFSET -0.33880114510000003 -0.019952774050000954 0.0002455003561999819
                    CHANNELS 3 Yrotation Xrotation Zrotation
                    JOINT rightMiddleDistal
                    {
                      OFFSET -0.20675694929999955 -0.012273788999999091 0.00030209124000002766
                      CHANNELS 3 Yrotation Xrotation Zrotation
                      End Site
                      {
                        OFFSET -0.20675694929999955 -0.012273788999999091 0.00030209124000002766
                      }
                    }
                  }
                }
                JOINT rightLittleProximal
                {
                  OFFSET -0.5346811737299992 -0.011214256288399227 -0.24363941305000003
                  CHANNELS 3 Yrotation Xrotation Zrotation
                  JOINT rightLittleIntermediate
                  {
                    OFFSET -0.21757715980000092 -0.011771559690000988 0.01201554387
                    CHANNELS 3 Yrotation Xrotation Zrotation
                    JOINT rightLittleDistal
                    {
                      OFFSET -0.1475201849000004 -0.00822055339600003 0.006082065407000015
                      CHANNELS 3 Yrotation Xrotation Zrotation
                      End Site
                      {
                        OFFSET -0.1475201849000004 -0.00822055339600003 0.006082065407000015
                      }
                    }
                  }
                }
                JOINT rightRingProximal
                {
                  OFFSET -0.5800810755299999 0.027657985680600072 -0.12066365025000003
                  CHANNELS 3 Yrotation Xrotation Zrotation
                  JOINT rightRingIntermediate
                  {
                    OFFSET -0.26166445029999974 -0.013623118409999302 0.011164098990000045
                    CHANNELS 3 Yrotation Xrotation Zrotation
                    JOINT rightRingDistal
                    {
                      OFFSET -0.17666387530000027 -0.009072900100000503 0.005668185599999959
                      CHANNELS 3 Yrotation Xrotation Zrotation
                      End Site
                      {
                        OFFSET -0.17666387530000027 -0.009072900100000503 0.005668185599999959
                      }
                    }
                  }
                }
                JOINT rightThumbProximal
                {
                  OFFSET -0.10997596379000074 -0.09577489355940072 0.16989765924999997
                  CHANNELS 3 Yrotation Xrotation Zrotation
                  JOINT rightThumbIntermediate
                  {
                    OFFSET -0.31036620999999986 -0.08229339117999834 0.15440884469999996
                    CHANNELS 3 Yrotation Xrotation Zrotation
                    JOINT rightThumbDistal
                    {
                      OFFSET -0.21631306399999906 -0.08825326400000111 0.018656797720000014
                      CHANNELS 3 Yrotation Xrotation Zrotation
                      End Site
                      {
                        OFFSET -0.21631306399999906 -0.08825326400000111 0.018656797720000014
                      }
                    }
                  }
                }
              }
            }
          }
        }
      }
    }
  }
}
MOTION
Frames: 9
Frame Time: 0.03333333333333333
0 11.682712981546562 0 0 0 0 0 0 -5.826343164929014 -0.3712483961610101 -3.6333298826370974 5.838118207697276 0 0 0 0 0 0 0 0 5.826343164929014 0.3712483961610101 -3.6333298826370974 -5.838118207697276 0 0 0 0 0 0 0 -4.610651315171937 0 0 3.0831277533083026 0 0 0 0 0 1.5275236235667615 0 0 0 0 0 0 0 0 0 0 0 0 0 0 0 0 0 0 0 0 0 0 0 0 0 0 0 0 0 0 0 0 0 0 0 0 0 0 0 0 0 0 0 0 0 0 0 0 0 0 0 0 0 0 0 0 1.5275236235667615 0 0 0 0 0 0 0 0 0 0 0 0 0 0 1.5275236235667615 0 0 0 0 0 0 0 0 0 0 0 0 0 0 0 0 0 0 0 0 0 0 0 0 0 0 0 0 0 0 0 0 0 0 0 0 0 0 0 0 0 0 0 0 0 0 0 0 0 0 0 0 0 0 0
0.22008890906230819 -3.5334894615148515 -0.08303520089667402 0 41.99880190470035 0 -16.265932529618937 -30.878213949690572 58.26590846632558 65.90068062026396 84.08351042507478 66.65876198325388 22.932993742765845 68.1740794810742 -22.763139270758813 0 0 0 16.249841591793317 -30.89268301506453 -58.27727741552145 -65.86875568374028 84.09173258354348 -66.65377636129712 -22.982840933022377 68.1639591810047 22.708639987344064 0 0 0 -0.29962364489835625 -14.713134990832398 0.6635341163006819 -1.1538649376350432 3.309930145400356 0.46993558065833524 0 0 0 -38.67615252206113 -7.01883483314718 -36.784020117906614 17.292476805571816 7.1382703019604605 -33.81864705649987 -43.63763084418141 -4.583465081131772 -15.610750326803883 -48.49849208831015 -6.616070106139092 39.57482709089814 0 0 0 0 0 0 0 0 0 0 0 0 0 0 0 0 0 0 0 0 0 0 0 0 0 0 0 0 0 0 0 0 0 0 0 0 0 0 0 0 0 0 0 0 0 0 1.4453406319924897 0 -0.0006030111084009521 0.3899241288020227 -0.17660409742536823 0 0 0 0 0 0 0 0 0 38.0952173959965 -5.625580853201702 32.81807727698532 -17.355106348492754 7.002429434357478 33.557352660119555 42.14232942749828 -4.171651487758058 15.01136322692907 49.61504259687146 -8.98935207298644 -34.805405823482936 0 0 0 0 0 0 0 0 0 0 0 0 0 0 0 0 0 0 0 0 0 0 0 0 0 0 0 0 0 0 0 0 0 0 0 0 0 0 0 0 0 0 0 0 0
0.22008890906230819 -3.541640803186688 -0.024184559175119268 0 41.002271439065765 0 -14.90723265434821 -30.069617763209983 57.87906995726055 60.30841484595821 83.78971700806802 61.05738446837958 23.574136875352714 67.82405655312691 -21.450676233487357 0 0 0 14.890984422429439 -30.08382504116729 -57.8910501222794 -60.27074312039966 83.79755111159416 -61.04625422863793 -23.621732145671224 67.81334646302109 21.39716740989456 0 0 0 -0.2983836837364192 -13.771639992361749 0.6584411482336746 -1.1531902024275615 2.589264657272373 0.4844970673959917 0 0 0 -38.394677205398835 -6.562462711350501 -37.73020153051704 17.245433825078653 7.082114788686221 -33.56940951673726 -43.029780825027935 -4.3945579720085135 -15.369678159594795 -48.94398537461786 -6.621663747410403 39.343651965516976 0 0 0 0 0 0 0 0 0 0 0 0 0 0 0 0 0 0 0 0 0 0 0 0 0 0 0 0 0 0 0 0 0 0 0 0 0 0 0 0 0 0 0 0 0 0 1.4791075969523104 0 0.04215909111046184 0.7756098643648479 -0.3461313973996728 0 0 0 0 0 0 0 0 0 37.793733195965395 -5.153398357763687 33.76017966758257 -17.29620429378193 6.9395761455752325 33.25796320842357 41.53800342259818 -3.992924469123362 14.771526993296028 50.0499789653015 -9.002699374519246 -34.565584311631326 0 0 0 0 0 0 0 0 0 0 0 0 0 0 0 0 0 0 0 0 0 0 0 0 0 0 0 0 0 0 0 0 0 0 0 0 0 0 0 0 0 0 0 0 0
0.22008890906230819 -3.5497921448585252 0.03466635093870679 0 40.004518111723684 0 -13.563806908748763 -29.252201308680423 57.51692152131838 55.26184797256829 83.44216400017154 56.00169473510197 24.185171457528632 67.46837207494735 -20.166941129756623 0 0 0 13.547397605417217 -29.26615656426738 -57.529528610067445 -55.22017025048853 83.44961403805839 -55.98616572256068 -24.23055031974211 67.4571097265767 20.11438927440166 0 0 0 -0.2972337057721507 -12.829119225587089 0.6533832779166316 -1.1526984374442562 1.8681401289733928 0.499053103216322 0 0 0 -38.120706503631325 -6.100910058533864 -38.674588910528676 17.19814504910467 7.026154503603229 -33.32013372272828 -42.42094280574435 -4.208105157639639 -15.126528499917358 -49.389602196182985 -6.629047829156983 39.11243071608901 0 0 0 0 0 0 0 0 0 0 0 0 0 0 0 0 0 0 0 0 0 0 0 0 0 0 0 0 0 0 0 0 0 0 0 0 0 0 0 0 0 0 0 0 0 0 1.5128735811435912 0 0.0838258183003947 1.161803438604465 -0.5155579153403489 0 0 0 0 0 0 0 0 0 37.49987536768676 -4.675676384410391 34.7004219861318 -17.23697404185374 6.877019334594067 32.95850356688766 40.93272830329301 -3.816628384307023 14.529722922206945 50.48503129486682 -9.017842644987661 -34.325784719055385 0 0 0 0 0 0 0 0 0 0 0 0 0 0 0 0 0 0 0 0 0 0 0 0 0 0 0 0 0 0 0 0 0 0 0 0 0 0 0 0 0 0 0 0 0
0.22008890906230819 -3.5579432181380906 0.09351726105253284 0 39.00571676449749 0 -12.235345710668376 -28.426738755942736 57.179147221045746 50.752183041150076 83.04886806110318 51.48290263719452 24.76691280410484 67.10735110236715 -18.91115774324274 0 0 0 12.218772385638902 -28.440447763512275 -57.192397548359665 -50.70815129564547 83.05589803416866 -51.46462137562041 -24.810096627360046 67.09555495693672 18.859523316778944 0 0 0 -0.2961705605702444 -11.885703498831408 0.6483588978449453 -1.1523903690407984 1.1466143916005092 0.5136050918807219 0 0 0 -37.854321829802196 -5.634374880537195 -39.61707460974087 17.1506115850917 6.970393623219781 -33.07081869491856 -41.81113672350012 -4.02414308871527 -14.881334200263032 -49.83532849011282 -6.638217704470981 38.88121391308506 0 0 0 0 0 0 0 0 0 0 0 0 0 0 0 0 0 0 0 0 0 0 0 0 0 0 0 0 0 0 0 0 0 0 0 0 0 0 0 0 0 0 0 0 0 0 1.5466415855452915 0 0.12439345139503934 1.5484890785385719 -0.6848921368379298 0 0 0 0 0 0 0 0 0 37.213762352164515 -4.192620936351158 35.63873621358448 -17.177415955279827 6.814769127399792 32.65899623602023 40.3265131361762 -3.6428045191599168 14.285990533945986 50.920167995521396 -9.03479162078474 -34.08602325591522 0 0 0 0 0 0 0 0 0 0 0 0 0 0 0 0 0 0 0 0 0 0 0 0 0 0 0 0 0 0 0 0 0 0 0 0 0 0 0 0 0 0 0 0 0
0.22008890906230819 -3.5660945598099283 0.1523679027740876 0 38.005987177086205 0 -10.921521398761797 -27.59399177608328 56.865383533545454 46.74567300800633 82.61708792691816 47.46725581733942 25.320259673613204 66.74132768762749 -17.68246647708162 0 0 0 10.904786802806141 -27.607477620561454 -56.87929183565847 -46.700535086162425 82.6237084637412 -47.44746965869994 -25.361249825188555 66.72900683885364 17.631754096735843 0 0 0 -0.2951960285066433 -10.941514070723915 0.6433649879700518 -1.1522651582023011 0.4247447533952113 0.5281585859476363 0 0 0 -37.59563903251554 -5.163062512807316 -40.55763512149712 17.102839243241334 6.914838473497624 -32.821476874165924 -41.2004217536096 -3.8427194848148876 -14.634138854389816 -50.28112084630178 -6.649184217761104 38.65001142060229 0 0 0 0 0 0 0 0 0 0 0 0 0 0 0 0 0 0 0 0 0 0 0 0 0 0 0 0 0 0 0 0 0 0 0 0 0 0 0 0 0 0 0 0 0 0 1.5804086326374542 0 0.1638630669454729 1.935654471705761 -0.8541456721459717 0 0 0 0 0 0 0 0 0 36.935500043586075 -3.7044498500293224 36.57507472293661 -17.117534078532167 6.752820172141261 32.35943160591036 39.719408669440554 -3.4714921469242013 14.040365937882036 51.35534467509139 -9.053542235276637 -33.846324671509265 0 0 0 0 0 0 0 0 0 0 0 0 0 0 0 0 0 0 0 0 0 0 0 0 0 0 0 0 0 0 0 0 0 0 0 0 0 0 0 0 0 0 0 0 0
0.22008890906230819 -3.5742459014817647 0.21121881288791364 0 37.005500901753834 0 -9.621989970932512 -26.754731754583723 56.57528221531553 43.195885429162416 82.15312124782461 43.9083217672514 25.846012710842484 66.37057542788796 -16.48011348686527 0 0 0 9.605102313587945 -26.76801134536496 -56.589870541548066 -43.15053202779334 82.15932721230635 -43.88792629886474 -25.88485572111058 66.35776420228798 16.430275511404226 0 0 0 -0.2943060570981035 -9.996685741121748 0.6383989423109998 -1.1523228566707218 -0.29741082394096224 0.5427149489410625 0 0 0 -37.344715186854444 -4.687178803344355 -41.496186733704675 17.0548256030828 6.859483339817284 -32.572090973840886 -40.58880600106345 -3.663865945853607 -14.384970213547788 -50.72698167591761 -6.661933736370747 38.418846982203036 0 0 0 0 0 0 0 0 0 0 0 0 0 0 0 0 0 0 0 0 0 0 0 0 0 0 0 0 0 0 0 0 0 0 0 0 0 0 0 0 0 0 0 0 0 0 1.61417761673239 0 0.2022324749794022 2.323286837626882 -1.0233283532738993 0 0 0 0 0 0 0 0 0 36.66516180294974 -3.2113733817820793 37.50934581967972 -17.05732979093771 6.691179587039983 32.05981494955332 39.111463112977994 -3.3027270334933356 13.792890155075524 51.7905785203933 -9.074094772073225 -33.60671852801767 0 0 0 0 0 0 0 0 0 0 0 0 0 0 0 0 0 0 0 0 0 0 0 0 0 0 0 0 0 0 0 0 0 0 0 0 0 0 0 0 0 0 0 0 0
0.22008890906230819 -3.5823972431536006 0.27006972300173976 0 36.004398117711744 0 -8.336413478440292 -25.909730792586554 56.308497203779744 40.05209134429696 81.66230644353202 40.755374462406714 26.345036971532714 65.99539529214793 -15.303278661695721 0 0 0 8.31936939177979 -25.922809347736315 -56.32374966752022 -40.00725561357224 81.66814917737732 -40.73509966124296 -26.381764949054794 65.98211815155194 15.25427923553954 0 0 0 -0.293501602195481 -9.051340247483942 0.6334586266094262 -1.1525656799436421 -1.0197992732335055 0.5572797196808135 0 0 0 -37.10163167316122 -4.2069396034806426 -42.432663264400134 17.006577090738066 6.8043362688907845 -32.32268873369022 -39.97637152247573 -3.4876283336574767 -14.133883332615438 -51.172884821220315 -6.676467259447303 38.18775024454302 0 0 0 0 0 0 0 0 0 0 0 0 0 0 0 0 0 0 0 0 0 0 0 0 0 0 0 0 0 0 0 0 0 0 0 0 0 0 0 0 0 0 0 0 0 0 1.6479456669778532 0 0.23949930627425073 2.7113722265280766 -1.1924499767236907 0 0 0 0 0 0 0 0 0 36.40286001314103 -2.71361888776646 38.44153610291028 -16.99680547699469 6.629846753720579 31.760148124933703 38.502713962600325 -3.136544860122114 13.543602554439824 52.22579819172268 -9.096446084624379 -33.36721614018177 0 0 0 0 0 0 0 0 0 0 0 0 0 0 0 0 0 0 0 0 0 0 0 0 0 0 0 0 0 0 0 0 0 0 0 0 0 0 0 0 0 0 0 0 0
0.22008890906230819 -3.5905483164331673 0.3289203647232945 0 35.00284849704393 0 -7.064433061270787 -25.059745724034396 56.06460607402699 37.26459701215671 81.1491154087253 37.95872162527006 26.818201212933168 65.61608836486742 -14.151142108335932 0 0 0 7.047227651189868 -25.07263217677636 -56.08051917220824 -37.2206831695518 81.15462162233818 -37.93897000362428 -26.852801015831528 65.60233562914391 14.102980517635244 0 0 0 -0.29278082210579176 -8.105608411806328 0.6285418328263501 -1.1529910796313758 -1.7423576915336603 0.571855326582633 0 0 0 -36.8664746462303 -3.72255756173043 -43.367031763057824 16.958087619298638 6.749397137671754 -32.073258616178286 -39.36313145713318 -3.3140413154318997 -13.880906734967908 -51.6187838517782 -6.692790104484468 37.9567250960077 0 0 0 0 0 0 0 0 0 0 0 0 0 0 0 0 0 0 0 0 0 0 0 0 0 0 0 0 0 0 0 0 0 0 0 0 0 0 0 0 0 0 0 0 0 0 1.681714610107224 0 0.2756619257217875 3.0998970072395644 -1.3615207896841919 0 0 0 0 0 0 0 0 0 36.14864310639216 -2.2114069621063166 39.37157642948522 -16.935965794163415 6.568827932142363 31.460446854973654 37.893210232045085 -2.972983359831036 13.292545854927571 52.661021640362584 -9.12060083656127 -33.12785180161863 0 0 0 0 0 0 0 0 0 0 0 0 0 0 0 0 0 0 0 0 0 0 0 0 0 0 0 0 0 0 0 0 0 0 0 0 0 0 0 0 0 0 0 0 0
